<svg xmlns="http://www.w3.org/2000/svg" viewBox="-214.527 112.834 162.965 162.572" width="162.965" height="162.572">
  <path fill="#000000" opacity="1.000000" stroke="none" d=" M180.278870,68.477402 C214.841507,77.074219 236.352005,98.405281 243.666214,132.783554 C253.048691,176.883102 222.157745,221.070709 177.764999,228.290222 C131.638489,235.791672 89.372749,205.501862 83.180046,159.249313 C76.627495,110.309036 111.551117,72.784782 153.052490,67.498116 C162.104584,66.345016 170.969208,66.794426 180.278870,68.477402 M149.193909,160.770294 C149.223267,171.433228 149.261673,182.096146 149.279831,192.759094 C149.305939,208.105026 149.302368,207.954147 164.787094,208.232224 C168.826752,208.304779 169.963913,207.087585 169.912018,203.192963 C169.732193,189.699265 169.905151,176.201218 169.804169,162.705872 C169.777771,159.180344 170.928467,157.670013 174.692261,157.585922 C187.188126,157.306778 187.185440,157.185608 188.585312,144.623871 C189.230240,138.836639 188.803131,138.360397 182.937210,138.326385 C169.602509,138.249084 169.602524,138.249100 169.842636,125.002808 C169.990814,116.828209 173.648666,113.027145 181.684082,112.697823 C190.586609,112.332954 190.586838,112.332954 190.592606,103.504410 C190.593140,102.671326 190.531830,101.833809 190.596603,101.005974 C190.805664,98.333633 189.573669,96.977776 186.930542,96.723190 C180.450958,96.099083 173.920044,95.666702 167.490997,96.581825 C161.453827,97.441170 156.808807,100.874039 153.537399,106.165817 C149.276184,113.058617 149.186234,120.658875 149.230301,128.378372 C149.293991,139.535172 150.255966,138.261307 139.395615,138.325577 C131.167175,138.374268 130.957291,138.563065 130.916107,146.727142 C130.851929,159.444794 130.636139,157.463821 142.041977,157.747437 C144.461334,157.807587 147.552170,156.390610 149.193909,160.770294 z" transform="matrix(1, 0, 0, 1, -296.91225, 45.976664)"></path>
</svg>
