<svg xmlns="http://www.w3.org/2000/svg" viewBox="18.146 112.735 163.078 162.672" width="163.078" height="162.672">
  <path fill="#000000" opacity="1.000000" stroke="none" d=" M395.053345,66.758797 C441.933167,67.120461 478.417603,103.247978 478.134003,148.541702 C477.871948,190.396561 444.476410,226.630768 403.756226,229.241760 C359.470245,232.081406 322.173157,202.631866 315.931610,159.896042 C308.867676,111.529297 345.479736,68.170975 395.053345,66.758797 M447.673248,145.500061 C447.669647,138.503540 447.775482,131.504883 447.639923,124.510910 C447.349182,109.506508 435.440094,97.493675 420.532349,97.356575 C404.375000,97.207985 388.213806,97.207184 372.056793,97.376678 C359.230560,97.511223 347.751129,106.858414 346.265045,119.544556 C344.131378,137.759109 344.578156,156.187134 345.884827,174.400131 C346.988861,189.788483 358.702240,198.823929 374.257935,198.880066 C389.750061,198.935974 405.244171,198.996521 420.734528,198.813110 C433.537140,198.661545 444.174622,189.932251 446.759827,177.385529 C448.861572,167.185257 447.220184,156.794373 447.673248,145.500061 z" transform="matrix(1, 0, 0, 1, -296.91225, 45.976664)"></path>
  <path fill="#000000" opacity="1.000000" stroke="none" d=" M360.986755,187.132751 C355.807465,183.013931 353.427887,177.750488 353.298035,171.689331 C352.955994,155.718765 352.454010,139.723007 353.576508,123.778145 C354.373962,112.450249 362.228333,105.172943 373.603851,104.969803 C388.915131,104.696373 404.237457,104.717949 419.550049,104.946945 C431.261261,105.122086 439.603119,113.303162 439.897095,125.269630 C440.273132,140.576096 440.300964,155.906937 439.894958,171.211777 C439.572449,183.369370 431.054657,191.197800 418.869995,191.289841 C404.054138,191.401779 389.236603,191.282394 374.420135,191.339737 C369.596313,191.358414 365.214630,190.157578 360.986755,187.132751 M371.533905,137.157120 C363.822388,154.954437 376.074829,174.719604 395.550507,175.617294 C408.679871,176.222473 421.209198,166.261429 423.567230,153.858612 C426.204071,139.989502 418.607727,126.840790 405.283661,122.210938 C392.069244,117.619202 378.748505,123.303436 371.533905,137.157120 M424.340027,115.432243 C420.625977,115.584663 418.973999,117.701363 419.245850,121.216400 C419.445068,123.792351 421.003113,125.456223 423.693939,125.649078 C426.562042,125.854645 428.490875,124.354492 429.201660,121.701881 C430.127960,118.244934 427.920776,116.592285 424.340027,115.432243 z" transform="matrix(1, 0, 0, 1, -296.91225, 45.976664)"></path>
  <path fill="#000000" opacity="1.000000" stroke="none" d=" M413.556519,139.736725 C418.023529,151.198227 413.758820,161.923691 403.413208,166.047501 C393.679504,169.927429 382.794189,165.124924 378.837524,155.204971 C375.153687,145.969009 379.167969,135.654083 388.196167,131.157455 C397.442963,126.551964 407.346741,129.793381 413.556519,139.736725 z" transform="matrix(1, 0, 0, 1, -296.91225, 45.976664)"></path>
</svg>
