<svg width="229" height="41" viewBox="0 0 229 41" fill="none" xmlns="http://www.w3.org/2000/svg">
<path d="M27.6085 26.6708L34.2001 38.3785H21.9696L16.404 28.3732H11.1313V38.3785H0V2.91199H20.3585C28.7802 2.91199 34.1269 7.44797 34.1269 15.6053C34.1269 20.8543 31.6371 24.6145 27.6085 26.6708ZM11.1313 12.1296V19.1519H19.0403C21.3838 19.1519 22.8484 17.8042 22.8484 15.6053C22.8484 13.4064 21.3838 12.1296 19.0403 12.1296H11.1313ZM69.5713 41L36.2507 32.2752L45.185 0L61.8453 4.36238L78.5055 8.72476L69.5713 41ZM63.2733 17.2367L53.9729 14.7541L51.483 23.7626L60.7835 26.2459L63.2733 17.2367ZM116.66 28.3732C116.66 35.1828 112.194 38.3785 105.236 38.3785H83.4132V2.91199H104.504C111.461 2.91199 115.928 6.38771 115.928 12.4879C115.928 16.3183 114.464 18.8726 111.68 20.646C114.83 21.9892 116.66 24.6855 116.66 28.3732ZM94.2514 11.424V16.673H101.497C103.474 16.673 104.647 15.8218 104.647 13.9776C104.647 12.2751 103.474 11.424 101.497 11.424H94.2514ZM94.2514 29.8665H102.38C104.284 29.8665 105.387 28.8735 105.387 27.1703C105.387 25.3268 104.288 24.4756 102.38 24.4756H94.2514V29.8665ZM122.153 2.91199H133.282V27.8774H149.247V38.3785H122.151L122.153 2.91199ZM190.186 20.646C190.186 24.2936 189.07 27.8593 186.977 30.8921C184.885 33.925 181.911 36.2888 178.432 37.6847C174.953 39.0806 171.125 39.4458 167.431 38.7342C163.738 38.0226 160.345 36.2661 157.682 33.6868C155.019 31.1076 153.206 27.8214 152.471 24.244C151.737 20.6665 152.114 16.9582 153.555 13.5883C154.996 10.2184 157.436 7.33803 160.568 5.31154C163.699 3.28504 167.38 2.2034 171.146 2.2034C173.647 2.19858 176.125 2.6722 178.438 3.59709C180.749 4.52197 182.85 5.87993 184.619 7.59304C186.388 9.30617 187.791 11.3407 188.746 13.58C189.701 15.8193 190.191 18.2193 190.186 20.6422V20.646ZM179.055 20.646C179.055 16.2474 175.466 12.7717 171.146 12.7717C166.825 12.7717 163.236 16.2474 163.236 20.646C163.236 25.0446 166.825 28.5195 171.146 28.5195C175.466 28.5195 179.055 25.0394 179.055 20.6422V20.646ZM216.989 20.0778L229 38.3785H215.741L209.154 27.9476L202.343 38.3785H188.868L201.39 20.5026L189.893 2.91199H203.148L209.227 12.4879L215.085 2.91199H228.267L216.989 20.0778Z" fill="#393B3D"/>
</svg>
