<svg xmlns="http://www.w3.org/2000/svg" viewBox="483.814 112.927 162.968 162.721" width="162.968" height="162.721">
  <path fill="#000000" opacity="1.000000" stroke="none" d=" M887.088257,70.729385 C929.600830,84.517876 953.649170,129.146866 939.744568,172.831924 C926.058716,215.829620 880.087585,239.455719 838.065369,225.803772 C794.518188,211.656403 770.973083,166.643280 784.573853,123.539711 C798.079407,80.737984 843.300110,57.307297 887.088257,70.729385 M884.549438,100.862793 C881.458008,97.839577 877.599792,99.866035 874.133362,99.301277 C869.574890,98.558601 868.114502,100.555275 868.158508,105.159508 C868.362427,126.479919 868.318481,147.803833 868.202515,169.125626 C868.153870,178.074280 861.504944,184.967041 853.082214,185.280304 C844.976440,185.581757 837.783264,179.765396 836.769714,172.089981 C835.591187,163.165451 840.968262,155.415863 850.228394,154.259476 C855.147705,153.645142 856.552795,151.761703 856.029114,147.336426 C855.873718,146.023239 856.036987,144.674072 856.027527,143.341568 C855.987122,137.635529 855.229980,136.932678 849.679749,137.417587 C831.846741,138.975540 819.245300,153.739548 820.170471,171.991333 C821.020874,188.771103 835.659058,202.022873 853.016296,201.726395 C870.452271,201.428574 884.576904,187.203049 884.744995,169.643814 C884.843933,159.316711 884.731628,148.987671 884.794617,138.660004 C884.805115,136.944168 884.148132,134.956543 885.962341,133.636276 C888.069824,133.474976 889.390808,134.939835 890.903320,135.869064 C895.401367,138.632660 900.298889,140.066376 905.509155,140.552460 C907.729431,140.759598 909.594177,140.392792 909.611572,137.568192 C909.633179,134.070480 909.628296,130.572556 909.624817,127.074715 C909.622986,125.245682 908.625366,124.467880 906.867859,124.205574 C893.820068,122.258156 887.468323,113.718460 884.549438,100.862793 z" transform="matrix(1, 0, 0, 1, -296.91225, 45.976664)"></path>
</svg>
