<svg xmlns="http://www.w3.org/2000/svg" viewBox="250.856 112.946 162.968 162.551" width="162.968" height="162.551">
  <path fill="#000000" opacity="1.000000" stroke="none" d=" M703.584595,114.615265 C724.868774,163.523132 696.538452,216.922623 646.479248,227.664627 C595.127869,238.683899 547.049805,199.200562 547.776550,146.987427 C548.336792,106.735558 579.134155,72.150169 618.464050,67.605553 C655.354553,63.342800 686.908508,80.676361 703.584595,114.615265 M601.828552,125.777336 C596.679382,122.761696 592.674438,118.253311 587.619568,114.162727 C582.428589,125.112907 587.020386,132.812866 594.521790,139.629181 C591.289856,141.815430 588.528076,139.154846 585.723206,140.091507 C586.663696,149.058823 592.538574,154.003738 600.008789,157.415527 C597.958008,160.385239 595.101990,158.630402 593.142578,160.063583 C594.547668,163.679749 596.962463,166.291794 599.945557,168.559158 C602.863281,170.776855 606.691162,170.951279 610.342102,173.224289 C603.248108,180.206558 594.284241,180.963852 584.462585,182.751465 C597.133728,188.481857 608.860107,190.375244 621.270996,188.711075 C646.356445,185.347382 666.318176,165.700729 669.933044,140.665497 C670.860657,134.241669 669.370850,126.797050 676.767517,122.791878 C676.902466,122.718803 676.784424,122.178459 676.784424,121.847717 C674.917847,120.172585 672.597229,122.862122 670.511414,121.090126 C671.097168,118.133980 674.978638,117.162689 675.310242,113.663666 C674.477844,113.663666 673.741882,113.441566 673.262268,113.698273 C668.847351,116.061363 665.317932,115.262672 660.956299,112.463951 C649.352051,105.017975 634.372070,111.618111 631.127869,125.090401 C630.441956,127.938637 630.299133,130.917648 629.858154,134.192078 C619.595520,134.851501 610.818726,131.229263 601.828552,125.777336 z" transform="matrix(1, 0, 0, 1, -296.91225, 45.976664)"></path>
</svg>
